<svg version="1.1" id="Layer_1" xmlns="http://www.w3.org/2000/svg" xmlns:xlink="http://www.w3.org/1999/xlink" x="0px" y="0px"
	 width="100%" viewBox="0 0 512 512" enable-background="new 0 0 512 512" xml:space="preserve">
<path fill="#000000" opacity="1.000000" stroke="none" 
	d="
M1.000000,137.000000 
	C1.000000,91.333336 1.000000,46.166668 1.000000,1.000000 
	C171.666672,1.000000 342.333344,1.000000 513.000000,1.000000 
	C513.000000,171.666672 513.000000,342.333344 513.000000,513.000000 
	C342.333344,513.000000 171.666672,513.000000 1.000000,513.000000 
	C1.000000,387.833344 1.000000,262.666656 1.000000,137.000000 
M206.500000,7.999157 
	C150.836670,7.999341 95.173347,7.979693 39.510040,8.010966 
	C21.180517,8.021265 8.018085,21.078415 8.015202,39.302364 
	C7.992333,183.793854 7.988468,328.285370 8.077411,472.776794 
	C8.079819,476.689362 8.764163,480.727386 9.867750,484.490662 
	C13.709892,497.592651 25.670271,505.995239 40.030064,505.995972 
	C184.021591,506.003265 328.013275,505.903015 472.004486,506.114349 
	C491.753174,506.143341 506.026062,493.005005 506.019958,472.262787 
	C505.977661,328.104614 506.010773,183.946396 505.924591,39.788273 
	C505.922333,36.041389 505.259033,32.167637 504.177368,28.571611 
	C500.342834,15.823364 488.706421,8.006902 473.984314,8.005030 
	C385.156219,7.993734 296.328094,7.999259 206.500000,7.999157 
z"/>
<path fill="#682F2A" opacity="1.000000" stroke="none" 
	d="
M207.000000,7.999157 
	C296.328094,7.999259 385.156219,7.993734 473.984314,8.005030 
	C488.706421,8.006902 500.342834,15.823364 504.177368,28.571611 
	C505.259033,32.167637 505.922333,36.041389 505.924591,39.788273 
	C506.010773,183.946396 505.977661,328.104614 506.019958,472.262787 
	C506.026062,493.005005 491.753174,506.143341 472.004486,506.114349 
	C328.013275,505.903015 184.021591,506.003265 40.030064,505.995972 
	C25.670271,505.995239 13.709892,497.592651 9.867750,484.490662 
	C8.764163,480.727386 8.079819,476.689362 8.077411,472.776794 
	C7.988468,328.285370 7.992333,183.793854 8.015202,39.302364 
	C8.018085,21.078415 21.180517,8.021265 39.510040,8.010966 
	C95.173347,7.979693 150.836670,7.999341 207.000000,7.999157 
M20.957079,33.813286 
	C20.745377,36.295570 20.356344,38.777405 20.350035,41.260212 
	C20.299664,61.081841 20.321701,80.903656 20.321699,100.725418 
	C20.321690,224.033127 20.395233,347.340942 20.210041,470.648376 
	C20.191156,483.223145 25.985451,493.907867 43.335766,493.866425 
	C185.805344,493.526154 328.276093,493.674713 470.746490,493.671722 
	C472.745605,493.671692 474.756775,493.764587 476.741608,493.585083 
	C483.626007,492.962494 488.896698,489.541595 491.438599,483.192078 
	C492.936981,479.449219 493.579193,475.125214 493.588104,471.060333 
	C493.719055,411.406342 493.678619,351.751984 493.678589,292.097717 
	C493.678558,208.456467 493.684662,124.815208 493.671814,41.173950 
	C493.669678,27.309635 486.876923,20.336920 473.314667,20.335585 
	C329.011322,20.321377 184.707993,20.338583 40.404655,20.300402 
	C31.054893,20.297928 24.366720,23.960985 20.957079,33.813286 
z"/>
<path fill="#DCECEA" opacity="1.000000" stroke="none" 
	d="
M21.029621,33.412857 
	C24.366720,23.960985 31.054893,20.297928 40.404655,20.300402 
	C184.707993,20.338583 329.011322,20.321377 473.314667,20.335585 
	C486.876923,20.336920 493.669678,27.309635 493.671814,41.173950 
	C493.684662,124.815208 493.678558,208.456467 493.678589,292.097717 
	C493.678619,351.751984 493.719055,411.406342 493.588104,471.060333 
	C493.579193,475.125214 492.936981,479.449219 491.438599,483.192078 
	C488.896698,489.541595 483.626007,492.962494 476.741608,493.585083 
	C474.756775,493.764587 472.745605,493.671692 470.746490,493.671722 
	C328.276093,493.674713 185.805344,493.526154 43.335766,493.866425 
	C25.985451,493.907867 20.191156,483.223145 20.210041,470.648376 
	C20.395233,347.340942 20.321690,224.033127 20.321699,100.725418 
	C20.321701,80.903656 20.299664,61.081841 20.350035,41.260212 
	C20.356344,38.777405 20.745377,36.295570 21.029621,33.412857 
M241.502441,250.998520 
	C227.411163,264.521667 219.121292,280.886414 216.699448,300.348694 
	C209.915497,354.865143 260.313110,400.655426 313.865814,388.101349 
	C323.416748,385.862366 332.456665,381.443573 341.349548,378.172180 
	C344.151062,380.587036 347.399933,383.387512 350.721283,386.250427 
	C347.129120,389.784332 345.576782,393.180267 349.363892,396.964752 
	C368.922485,416.509766 388.305206,436.237061 408.169342,455.466827 
	C415.653229,462.711700 425.085693,463.698700 434.638336,459.329376 
	C450.159821,452.229919 453.398254,432.199371 440.936096,419.556427 
	C422.693420,401.049072 404.223633,382.765533 385.843384,364.393890 
	C380.547455,359.100433 379.297913,359.003174 373.044952,363.410919 
	C370.079651,360.380524 367.087097,357.322266 364.092651,354.264313 
	C364.113800,354.099060 364.087341,353.906830 364.163452,353.772766 
	C364.982971,352.328674 365.841278,350.906342 366.646393,349.454437 
	C376.394958,331.873993 379.663025,313.142273 375.428101,293.499176 
	C362.111908,231.734406 289.568176,208.432526 241.502441,250.998520 
M302.500244,39.663368 
	C269.180359,39.663372 235.860474,39.653507 202.540588,39.673195 
	C197.044922,39.676441 191.524170,39.499928 186.058777,39.944527 
	C173.478119,40.967937 164.134354,53.519543 166.473602,65.872383 
	C168.751495,77.901176 177.845871,84.869095 191.438812,84.871422 
	C275.904816,84.885902 360.370850,84.879250 444.836853,84.875740 
	C446.169067,84.875687 447.507568,84.900597 448.832581,84.788841 
	C464.605408,83.458420 474.388641,68.063423 468.586548,53.730854 
	C464.905426,44.637501 456.914642,39.692047 445.443146,39.682690 
	C398.128876,39.644093 350.814575,39.664577 302.500244,39.663368 
M167.307037,290.327942 
	C161.548630,271.398804 141.832489,254.265991 116.487709,256.904022 
	C96.868858,258.946045 82.924934,269.398193 75.787285,287.696564 
	C68.303268,306.882874 72.179214,324.687103 86.343658,339.356934 
	C99.354622,352.832184 115.729027,356.947540 134.002274,352.213257 
	C159.193253,345.686707 175.752533,318.688049 167.307037,290.327942 
M142.500000,442.973511 
	C133.001541,442.973541 123.503075,442.972321 114.004616,442.973907 
	C99.340271,442.976379 84.675919,442.981476 70.011574,442.983612 
	C66.460121,442.984161 63.384521,444.204742 63.322388,448.096008 
	C63.260403,451.978119 65.805168,454.087250 69.856697,453.993225 
	C70.855896,453.970032 71.856255,454.000549 72.856079,454.000549 
	C168.674347,454.001099 264.492615,454.001801 360.310883,453.994659 
	C361.975037,453.994507 364.039673,454.500214 365.215454,453.716583 
	C367.315491,452.316956 370.040619,450.304016 370.387604,448.198639 
	C370.875549,445.238281 368.340668,443.132385 364.964478,443.020111 
	C363.299622,442.964752 361.632233,442.975372 359.965973,442.975311 
	C287.810638,442.973328 215.655319,442.973480 142.500000,442.973511 
M231.960098,148.068069 
	C231.511917,143.479660 228.684036,141.935669 224.419556,141.972946 
	C216.591370,142.041382 208.761734,141.941788 200.933548,142.009720 
	C195.634048,142.055710 193.482910,143.963867 193.466003,149.141785 
	C193.383270,174.460068 193.385727,199.778931 193.471939,225.097198 
	C193.488968,230.097778 195.557053,231.975037 200.555405,232.024384 
	C208.216858,232.100006 215.879654,232.060364 223.541794,232.040695 
	C230.343826,232.023239 231.968216,230.375412 231.971771,223.423859 
	C231.984482,198.604980 231.975586,173.786102 231.960098,148.068069 
M227.500000,421.998779 
	C243.486526,421.998779 259.473053,422.004395 275.459595,421.993500 
	C278.289093,421.991577 281.158386,422.202911 283.937836,421.810028 
	C287.386414,421.322540 289.140228,418.980438 288.902832,415.461182 
	C288.676208,412.101624 286.421997,411.020721 283.395355,411.002014 
	C282.396271,410.995850 281.397186,410.979675 280.398102,410.979675 
	C211.123154,410.978546 141.848190,410.977142 72.573235,410.981110 
	C66.156601,410.981476 63.088463,412.793518 63.109184,416.518188 
	C63.129799,420.223602 66.187042,421.996277 72.629654,421.996735 
	C123.919769,422.000366 175.209885,421.998779 227.500000,421.998779 
M128.132828,190.499954 
	C128.133743,201.812363 128.087860,213.125046 128.155487,224.437057 
	C128.188843,230.017303 130.157837,231.988022 135.611145,232.029648 
	C143.429565,232.089340 151.248962,232.079330 159.067581,232.033997 
	C164.685852,232.001419 166.749390,230.146408 166.767426,224.687241 
	C166.838318,203.227158 166.838425,181.766586 166.767227,160.306503 
	C166.749191,154.869629 164.657822,152.969528 159.061371,152.928726 
	C151.242905,152.871719 143.423233,152.861252 135.605026,152.933624 
	C130.159546,152.984024 128.195496,154.980682 128.154831,160.553604 
	C128.084396,170.201920 128.133728,179.851120 128.132828,190.499954 
M333.500000,204.005188 
	C313.512817,204.005264 293.525635,204.000656 273.538452,204.007919 
	C266.379944,204.010513 263.273041,205.791534 263.193512,209.892029 
	C263.112366,214.077011 266.256927,215.990585 273.327179,215.991302 
	C329.124725,215.996994 384.922272,215.997101 440.719818,215.991165 
	C447.777130,215.990402 450.923492,214.055725 450.811005,209.856247 
	C450.703613,205.847382 447.645844,204.011581 440.931732,204.009857 
	C405.454498,204.000793 369.977234,204.005371 333.500000,204.005188 
M342.500000,173.002441 
	C332.013306,173.002441 321.526611,173.000320 311.039917,173.002975 
	C297.557098,173.006409 284.074249,172.997955 270.591492,173.029083 
	C266.667847,173.038132 263.248138,174.489380 263.349640,178.814133 
	C263.443359,182.809036 266.527130,184.759796 270.508575,184.956360 
	C271.505188,185.005569 272.505615,184.982162 273.504303,184.982178 
	C329.266785,184.983078 385.029236,184.985825 440.791718,184.979279 
	C447.784882,184.978455 450.974243,182.981049 450.811432,178.779816 
	C450.656769,174.790085 447.630768,173.008331 440.876251,173.006561 
	C408.417511,172.998032 375.958740,173.002548 342.500000,173.002441 
M368.500000,142.001404 
	C336.850891,142.001511 305.201752,141.994476 273.552643,142.018738 
	C271.565369,142.020264 269.323242,141.739227 267.661194,142.543442 
	C265.920258,143.385803 263.848083,145.229477 263.563934,146.912872 
	C263.290894,148.530609 264.671722,151.196564 266.139008,152.148621 
	C268.068939,153.400864 270.793335,153.907013 273.177460,153.910904 
	C328.979706,154.001785 384.782104,153.986435 440.584503,153.959076 
	C442.399811,153.958191 444.610565,154.209671 445.936890,153.310684 
	C447.891785,151.985611 450.695160,149.498459 450.448395,147.929016 
	C450.113953,145.802017 447.463226,143.741882 445.359741,142.307846 
	C444.197388,141.515411 442.123627,142.010025 440.460663,142.009247 
	C416.807098,141.998108 393.153564,142.001511 368.500000,142.001404 
M100.709740,164.040054 
	C98.558281,163.048401 96.439713,161.296112 94.249474,161.201431 
	C86.272461,160.856598 78.270798,161.001663 70.279816,161.089127 
	C65.126205,161.145523 63.060886,163.216965 63.045311,168.433548 
	C62.989140,187.247726 62.988049,206.062302 63.047325,224.876465 
	C63.063705,230.076233 65.094780,231.991089 70.383514,232.031326 
	C78.042015,232.089569 85.701347,232.068146 93.360199,232.041656 
	C99.931343,232.018921 101.555984,230.418457 101.571838,223.688354 
	C101.614197,205.706589 101.601654,187.724625 101.563805,169.742844 
	C101.560341,168.097336 101.218727,166.452530 100.709740,164.040054 
M139.500000,390.001221 
	C155.495331,390.001221 171.490662,390.004425 187.485992,389.999603 
	C193.983963,389.997620 200.506775,390.291565 206.965164,389.780243 
	C208.966476,389.621796 211.394928,387.609558 212.482422,385.769226 
	C213.178726,384.590851 212.354752,381.487091 211.167496,380.487976 
	C209.748062,379.293427 207.214523,379.039825 205.162430,379.036407 
	C160.675583,378.962097 116.188576,378.978851 71.701607,378.983826 
	C70.536301,378.983948 69.009544,378.591400 68.276108,379.171661 
	C66.369644,380.679871 63.515549,382.603607 63.480621,384.408813 
	C63.445946,386.200653 66.176529,388.341278 68.113686,389.753876 
	C69.111549,390.481506 71.021492,389.994415 72.519325,389.994995 
	C94.512886,390.003143 116.506439,390.000946 139.500000,390.001221 
M68.725510,84.681190 
	C70.140335,84.199844 71.594772,83.810661 72.963608,83.222321 
	C82.480087,79.132065 88.317398,68.760551 86.664627,58.959835 
	C84.838394,48.130524 76.639709,40.414570 65.748573,39.275318 
	C55.931122,38.248371 45.746536,44.794460 42.312061,54.434826 
	C36.470367,70.832085 50.244709,87.715370 68.725510,84.681190 
M126.651001,84.595535 
	C127.907082,84.166321 129.195328,83.812958 130.414169,83.295921 
	C140.423981,79.049774 145.816193,69.108475 144.078445,58.166935 
	C142.474411,48.067471 133.710098,40.168625 123.078323,39.240570 
	C112.963440,38.357635 102.908363,45.121326 99.768478,55.214050 
	C94.450356,72.308441 108.975212,87.830910 126.651001,84.595535 
z"/>
<path fill="#69322D" opacity="1.000000" stroke="none" 
	d="
M241.758698,250.752686 
	C289.568176,208.432526 362.111908,231.734406 375.428101,293.499176 
	C379.663025,313.142273 376.394958,331.873993 366.646393,349.454437 
	C365.841278,350.906342 364.982971,352.328674 364.163452,353.772766 
	C364.087341,353.906830 364.113800,354.099060 364.093597,354.264160 
	C367.087097,357.322266 370.079651,360.380524 373.044952,363.410919 
	C379.297913,359.003174 380.547455,359.100433 385.843384,364.393890 
	C404.223633,382.765533 422.693420,401.049072 440.936096,419.556427 
	C453.398254,432.199371 450.159821,452.229919 434.638336,459.329376 
	C425.085693,463.698700 415.653229,462.711700 408.169342,455.466827 
	C388.305206,436.237061 368.922485,416.509766 349.363892,396.964752 
	C345.576782,393.180267 347.129120,389.784332 350.721283,386.250427 
	C347.399933,383.387512 344.151062,380.587036 341.349548,378.172180 
	C332.456665,381.443573 323.416748,385.862366 313.865814,388.101349 
	C260.313110,400.655426 209.915497,354.865143 216.699448,300.348694 
	C219.121292,280.886414 227.411163,264.521667 241.758698,250.752686 
M228.051346,302.818726 
	C228.110291,307.975922 227.651810,313.200348 228.311432,318.279541 
	C232.896851,353.587708 263.826965,380.075958 298.381561,378.535919 
	C335.775726,376.869354 363.955933,348.796722 365.389709,311.783630 
	C367.045319,269.042816 328.193115,234.924744 286.095581,241.592316 
	C258.071655,246.030869 232.112976,268.656738 228.051346,302.818726 
M397.601349,392.832764 
	C392.409241,387.471527 387.193329,382.133057 382.037231,376.737427 
	C380.083160,374.692596 378.440857,374.985718 376.579559,376.905640 
	C372.417145,381.199127 368.186859,385.428955 363.905212,389.603668 
	C362.013214,391.448425 361.660034,393.071106 363.703186,395.067017 
	C368.456238,399.710236 373.036530,404.534332 377.892609,409.064514 
	C378.810608,409.920898 381.422211,410.511139 381.995056,409.947144 
	C387.400665,404.625183 392.533569,399.026215 397.601349,392.832764 
M406.075806,428.710327 
	C410.763336,424.279358 415.450836,419.848419 419.601471,415.924988 
	C414.624329,410.917572 410.446411,406.714264 406.848541,403.094543 
	C401.165771,408.582977 395.220734,414.324677 389.618317,419.735474 
	C393.689117,423.893585 397.818054,428.111145 402.104218,432.489288 
	C403.151764,431.492554 404.346710,430.355499 406.075806,428.710327 
M430.117645,425.414001 
	C428.697601,425.462097 426.739990,424.925201 425.946075,425.654724 
	C421.311798,429.913177 416.870331,434.393616 412.570312,438.992279 
	C411.796265,439.820068 411.377960,441.827698 411.832611,442.811066 
	C413.844574,447.162781 421.354004,450.652161 426.255707,449.860138 
	C431.741638,448.973694 435.972687,444.531891 436.805145,438.730286 
	C437.615112,433.085571 434.421844,429.344391 430.117645,425.414001 
M352.198181,371.466187 
	C353.239532,372.535706 354.339203,373.555054 355.310364,374.684906 
	C357.508057,377.241760 359.445862,377.250641 361.932068,374.794647 
	C364.545715,372.212677 363.393738,370.539398 361.303741,368.668213 
	C359.737183,367.265686 358.242920,365.782379 355.838287,363.502380 
	C354.247681,366.428711 353.027740,368.673126 352.198181,371.466187 
z"/>
<path fill="#69322D" opacity="1.000000" stroke="none" 
	d="
M303.000244,39.663361 
	C350.814575,39.664577 398.128876,39.644093 445.443146,39.682690 
	C456.914642,39.692047 464.905426,44.637501 468.586548,53.730854 
	C474.388641,68.063423 464.605408,83.458420 448.832581,84.788841 
	C447.507568,84.900597 446.169067,84.875687 444.836853,84.875740 
	C360.370850,84.879250 275.904816,84.885902 191.438812,84.871422 
	C177.845871,84.869095 168.751495,77.901176 166.473602,65.872383 
	C164.134354,53.519543 173.478119,40.967937 186.058777,39.944527 
	C191.524170,39.499928 197.044922,39.676441 202.540588,39.673195 
	C235.860474,39.653507 269.180359,39.663372 303.000244,39.663361 
M385.500031,51.184349 
	C321.698914,51.184345 257.897797,51.182751 194.096664,51.191715 
	C192.100540,51.191998 190.081223,51.128086 188.112534,51.391624 
	C181.587463,52.265102 177.689819,56.707851 177.934540,62.799442 
	C178.173706,68.753082 182.653397,72.837914 189.212311,73.058243 
	C190.543579,73.102966 191.877411,73.073288 193.210068,73.073296 
	C276.668060,73.073753 360.126068,73.074318 443.584045,73.069977 
	C445.415710,73.069885 447.267120,73.174919 449.075470,72.953857 
	C455.437469,72.176094 459.599457,66.196190 458.248566,59.927128 
	C457.018188,54.217186 452.742737,51.216145 445.470337,51.200169 
	C425.813660,51.156986 406.156830,51.184761 385.500031,51.184349 
z"/>
<path fill="#6A322C" opacity="1.000000" stroke="none" 
	d="
M167.464050,290.699463 
	C175.752533,318.688049 159.193253,345.686707 134.002274,352.213257 
	C115.729027,356.947540 99.354622,352.832184 86.343658,339.356934 
	C72.179214,324.687103 68.303268,306.882874 75.787285,287.696564 
	C82.924934,269.398193 96.868858,258.946045 116.487709,256.904022 
	C141.832489,254.265991 161.548630,271.398804 167.464050,290.699463 
M101.315910,317.810089 
	C105.139771,313.644409 109.009705,309.519470 112.755287,305.284576 
	C113.699516,304.216980 114.858932,302.807159 114.878807,301.538300 
	C115.047424,290.773132 114.975166,280.004181 114.975166,268.579926 
	C101.297920,271.683167 91.705948,278.854340 86.687180,291.342194 
	C81.540581,304.148102 83.305573,316.266296 91.679382,328.121521 
	C94.989052,324.592651 97.918762,321.468903 101.315910,317.810089 
M149.143845,319.391174 
	C150.485153,320.313324 151.826462,321.235474 153.624756,322.471771 
	C159.396194,311.328156 159.562637,300.453064 154.524124,289.644135 
	C149.209152,278.242096 140.116638,271.442139 126.936073,268.730621 
	C126.936073,279.928558 126.856201,290.498138 127.050674,301.062653 
	C127.071815,302.210724 128.489761,303.569611 129.579315,304.422516 
	C135.856903,309.336578 142.230682,314.127777 149.143845,319.391174 
M111.654655,341.137421 
	C124.462914,343.932648 135.966339,341.671539 146.460922,332.220856 
	C137.999207,325.792419 129.981461,319.701294 121.619598,313.348724 
	C114.436409,321.115967 107.629005,328.476837 100.176292,336.535492 
	C104.454247,338.310181 107.649658,339.635773 111.654655,341.137421 
z"/>
<path fill="#C6E0DD" opacity="1.000000" stroke="none" 
	d="
M143.000000,442.973450 
	C215.655319,442.973480 287.810638,442.973328 359.965973,442.975311 
	C361.632233,442.975372 363.299622,442.964752 364.964478,443.020111 
	C368.340668,443.132385 370.875549,445.238281 370.387604,448.198639 
	C370.040619,450.304016 367.315491,452.316956 365.215454,453.716583 
	C364.039673,454.500214 361.975037,453.994507 360.310883,453.994659 
	C264.492615,454.001801 168.674347,454.001099 72.856079,454.000549 
	C71.856255,454.000549 70.855896,453.970032 69.856697,453.993225 
	C65.805168,454.087250 63.260403,451.978119 63.322388,448.096008 
	C63.384521,444.204742 66.460121,442.984161 70.011574,442.983612 
	C84.675919,442.981476 99.340271,442.976379 114.004616,442.973907 
	C123.503075,442.972321 133.001541,442.973541 143.000000,442.973450 
z"/>
<path fill="#6C352D" opacity="1.000000" stroke="none" 
	d="
M231.967468,148.517639 
	C231.975586,173.786102 231.984482,198.604980 231.971771,223.423859 
	C231.968216,230.375412 230.343826,232.023239 223.541794,232.040695 
	C215.879654,232.060364 208.216858,232.100006 200.555405,232.024384 
	C195.557053,231.975037 193.488968,230.097778 193.471939,225.097198 
	C193.385727,199.778931 193.383270,174.460068 193.466003,149.141785 
	C193.482910,143.963867 195.634048,142.055710 200.933548,142.009720 
	C208.761734,141.941788 216.591370,142.041382 224.419556,141.972946 
	C228.684036,141.935669 231.511917,143.479660 231.967468,148.517639 
M220.207169,195.500031 
	C220.207169,181.746506 220.207169,167.992981 220.207169,154.232208 
	C214.758377,154.232208 210.062927,154.232208 205.418472,154.232208 
	C205.418472,176.429718 205.418472,198.166077 205.418472,219.912842 
	C210.479446,219.912842 215.176682,219.912842 220.207245,219.912842 
	C220.207245,211.787003 220.207245,204.143509 220.207169,195.500031 
z"/>
<path fill="#C5DFDC" opacity="1.000000" stroke="none" 
	d="
M227.000000,421.998779 
	C175.209885,421.998779 123.919769,422.000366 72.629654,421.996735 
	C66.187042,421.996277 63.129799,420.223602 63.109184,416.518188 
	C63.088463,412.793518 66.156601,410.981476 72.573235,410.981110 
	C141.848190,410.977142 211.123154,410.978546 280.398102,410.979675 
	C281.397186,410.979675 282.396271,410.995850 283.395355,411.002014 
	C286.421997,411.020721 288.676208,412.101624 288.902832,415.461182 
	C289.140228,418.980438 287.386414,421.322540 283.937836,421.810028 
	C281.158386,422.202911 278.289093,421.991577 275.459595,421.993500 
	C259.473053,422.004395 243.486526,421.998779 227.000000,421.998779 
z"/>
<path fill="#6C332F" opacity="1.000000" stroke="none" 
	d="
M128.132828,189.999939 
	C128.133728,179.851120 128.084396,170.201920 128.154831,160.553604 
	C128.195496,154.980682 130.159546,152.984024 135.605026,152.933624 
	C143.423233,152.861252 151.242905,152.871719 159.061371,152.928726 
	C164.657822,152.969528 166.749191,154.869629 166.767227,160.306503 
	C166.838425,181.766586 166.838318,203.227158 166.767426,224.687241 
	C166.749390,230.146408 164.685852,232.001419 159.067581,232.033997 
	C151.248962,232.079330 143.429565,232.089340 135.611145,232.029648 
	C130.157837,231.988022 128.188843,230.017303 128.155487,224.437057 
	C128.087860,213.125046 128.133743,201.812363 128.132828,189.999939 
M155.062622,180.503464 
	C155.062622,175.402603 155.062622,170.301743 155.062622,165.130264 
	C149.674454,165.130264 144.997513,165.130264 140.329041,165.130264 
	C140.329041,183.682922 140.329041,201.739700 140.329041,219.869171 
	C145.360382,219.869171 150.036880,219.869171 155.062668,219.869171 
	C155.062668,206.752304 155.062668,194.127121 155.062622,180.503464 
z"/>
<path fill="#C6DFDC" opacity="1.000000" stroke="none" 
	d="
M334.000000,204.005203 
	C369.977234,204.005371 405.454498,204.000793 440.931732,204.009857 
	C447.645844,204.011581 450.703613,205.847382 450.811005,209.856247 
	C450.923492,214.055725 447.777130,215.990402 440.719818,215.991165 
	C384.922272,215.997101 329.124725,215.996994 273.327179,215.991302 
	C266.256927,215.990585 263.112366,214.077011 263.193512,209.892029 
	C263.273041,205.791534 266.379944,204.010513 273.538452,204.007919 
	C293.525635,204.000656 313.512817,204.005264 334.000000,204.005203 
z"/>
<path fill="#C6DFDC" opacity="1.000000" stroke="none" 
	d="
M343.000000,173.002441 
	C375.958740,173.002548 408.417511,172.998032 440.876251,173.006561 
	C447.630768,173.008331 450.656769,174.790085 450.811432,178.779816 
	C450.974243,182.981049 447.784882,184.978455 440.791718,184.979279 
	C385.029236,184.985825 329.266785,184.983078 273.504303,184.982178 
	C272.505615,184.982162 271.505188,185.005569 270.508575,184.956360 
	C266.527130,184.759796 263.443359,182.809036 263.349640,178.814133 
	C263.248138,174.489380 266.667847,173.038132 270.591492,173.029083 
	C284.074249,172.997955 297.557098,173.006409 311.039917,173.002975 
	C321.526611,173.000320 332.013306,173.002441 343.000000,173.002441 
z"/>
<path fill="#C6DFDC" opacity="1.000000" stroke="none" 
	d="
M369.000000,142.001404 
	C393.153564,142.001511 416.807098,141.998108 440.460663,142.009247 
	C442.123627,142.010025 444.197388,141.515411 445.359741,142.307846 
	C447.463226,143.741882 450.113953,145.802017 450.448395,147.929016 
	C450.695160,149.498459 447.891785,151.985611 445.936890,153.310684 
	C444.610565,154.209671 442.399811,153.958191 440.584503,153.959076 
	C384.782104,153.986435 328.979706,154.001785 273.177460,153.910904 
	C270.793335,153.907013 268.068939,153.400864 266.139008,152.148621 
	C264.671722,151.196564 263.290894,148.530609 263.563934,146.912872 
	C263.848083,145.229477 265.920258,143.385803 267.661194,142.543442 
	C269.323242,141.739227 271.565369,142.020264 273.552643,142.018738 
	C305.201752,141.994476 336.850891,142.001511 369.000000,142.001404 
z"/>
<path fill="#6A3530" opacity="1.000000" stroke="none" 
	d="
M100.871941,164.423737 
	C101.218727,166.452530 101.560341,168.097336 101.563805,169.742844 
	C101.601654,187.724625 101.614197,205.706589 101.571838,223.688354 
	C101.555984,230.418457 99.931343,232.018921 93.360199,232.041656 
	C85.701347,232.068146 78.042015,232.089569 70.383514,232.031326 
	C65.094780,231.991089 63.063705,230.076233 63.047325,224.876465 
	C62.988049,206.062302 62.989140,187.247726 63.045311,168.433548 
	C63.060886,163.216965 65.126205,161.145523 70.279816,161.089127 
	C78.270798,161.001663 86.272461,160.856598 94.249474,161.201431 
	C96.439713,161.296112 98.558281,163.048401 100.871941,164.423737 
M76.687820,172.888138 
	C76.059563,174.352570 74.902008,175.811203 74.885887,177.282318 
	C74.743484,190.279953 74.791718,203.279846 74.823143,216.278961 
	C74.826210,217.547836 75.094795,218.816055 75.237823,220.064407 
	C80.223175,220.064407 84.814629,220.064407 89.527435,220.064407 
	C89.527435,204.192230 89.527435,188.655563 89.527435,173.153351 
	C88.635902,173.020645 88.143890,172.887665 87.650841,172.883682 
	C84.318077,172.856750 80.985107,172.857132 76.687820,172.888138 
z"/>
<path fill="#C5DFDC" opacity="1.000000" stroke="none" 
	d="
M139.000000,390.001221 
	C116.506439,390.000946 94.512886,390.003143 72.519325,389.994995 
	C71.021492,389.994415 69.111549,390.481506 68.113686,389.753876 
	C66.176529,388.341278 63.445946,386.200653 63.480621,384.408813 
	C63.515549,382.603607 66.369644,380.679871 68.276108,379.171661 
	C69.009544,378.591400 70.536301,378.983948 71.701607,378.983826 
	C116.188576,378.978851 160.675583,378.962097 205.162430,379.036407 
	C207.214523,379.039825 209.748062,379.293427 211.167496,380.487976 
	C212.354752,381.487091 213.178726,384.590851 212.482422,385.769226 
	C211.394928,387.609558 208.966476,389.621796 206.965164,389.780243 
	C200.506775,390.291565 193.983963,389.997620 187.485992,389.999603 
	C171.490662,390.004425 155.495331,390.001221 139.000000,390.001221 
z"/>
<path fill="#6B322D" opacity="1.000000" stroke="none" 
	d="
M68.304848,84.768776 
	C50.244709,87.715370 36.470367,70.832085 42.312061,54.434826 
	C45.746536,44.794460 55.931122,38.248371 65.748573,39.275318 
	C76.639709,40.414570 84.838394,48.130524 86.664627,58.959835 
	C88.317398,68.760551 82.480087,79.132065 72.963608,83.222321 
	C71.594772,83.810661 70.140335,84.199844 68.304848,84.768776 
M73.493027,56.304028 
	C72.467957,55.227406 71.574577,53.970722 70.393715,53.107132 
	C66.483002,50.247158 61.246281,50.342304 57.336369,53.176788 
	C53.331905,56.079823 51.710060,61.287239 53.313400,66.093666 
	C54.779476,70.488609 59.289391,73.600487 64.089172,73.529030 
	C72.352112,73.406013 76.918808,65.688744 73.493027,56.304028 
z"/>
<path fill="#6A322D" opacity="1.000000" stroke="none" 
	d="
M126.237686,84.699409 
	C108.975212,87.830910 94.450356,72.308441 99.768478,55.214050 
	C102.908363,45.121326 112.963440,38.357635 123.078323,39.240570 
	C133.710098,40.168625 142.474411,48.067471 144.078445,58.166935 
	C145.816193,69.108475 140.423981,79.049774 130.414169,83.295921 
	C129.195328,83.812958 127.907082,84.166321 126.237686,84.699409 
M123.902985,51.205975 
	C116.387276,50.813919 111.490860,54.215740 110.380814,60.600590 
	C109.467384,65.854546 112.911392,71.376274 118.106613,72.987259 
	C124.020096,74.820976 130.032684,71.816216 132.132584,65.977844 
	C134.343307,59.831341 131.645233,54.571838 123.902985,51.205975 
z"/>
<path fill="#5598FA" opacity="1.000000" stroke="none" 
	d="
M228.089447,302.358826 
	C232.112976,268.656738 258.071655,246.030869 286.095581,241.592316 
	C328.193115,234.924744 367.045319,269.042816 365.389709,311.783630 
	C363.955933,348.796722 335.775726,376.869354 298.381561,378.535919 
	C263.826965,380.075958 232.896851,353.587708 228.311432,318.279541 
	C227.651810,313.200348 228.110291,307.975922 228.089447,302.358826 
M300.358826,250.880508 
	C295.393250,251.135498 290.294922,250.750854 285.483643,251.749374 
	C254.405243,258.199280 235.299332,284.042328 237.899200,315.664764 
	C240.746338,350.295044 275.395233,375.251160 309.216522,367.594025 
	C339.701385,360.692230 359.431641,330.991577 355.169617,301.275085 
	C351.360687,274.717865 327.917480,252.112411 300.358826,250.880508 
z"/>
<path fill="#535D6E" opacity="1.000000" stroke="none" 
	d="
M397.673218,393.169922 
	C392.533569,399.026215 387.400665,404.625183 381.995056,409.947144 
	C381.422211,410.511139 378.810608,409.920898 377.892609,409.064514 
	C373.036530,404.534332 368.456238,399.710236 363.703186,395.067017 
	C361.660034,393.071106 362.013214,391.448425 363.905212,389.603668 
	C368.186859,385.428955 372.417145,381.199127 376.579559,376.905640 
	C378.440857,374.985718 380.083160,374.692596 382.037231,376.737427 
	C387.193329,382.133057 392.409241,387.471527 397.673218,393.169922 
z"/>
<path fill="#E2E0E0" opacity="1.000000" stroke="none" 
	d="
M405.808716,428.964386 
	C404.346710,430.355499 403.151764,431.492554 402.104218,432.489288 
	C397.818054,428.111145 393.689117,423.893585 389.618317,419.735474 
	C395.220734,414.324677 401.165771,408.582977 406.848541,403.094543 
	C410.446411,406.714264 414.624329,410.917572 419.601471,415.924988 
	C415.450836,419.848419 410.763336,424.279358 405.808716,428.964386 
z"/>
<path fill="#525E6F" opacity="1.000000" stroke="none" 
	d="
M430.374756,425.657593 
	C434.421844,429.344391 437.615112,433.085571 436.805145,438.730286 
	C435.972687,444.531891 431.741638,448.973694 426.255707,449.860138 
	C421.354004,450.652161 413.844574,447.162781 411.832611,442.811066 
	C411.377960,441.827698 411.796265,439.820068 412.570312,438.992279 
	C416.870331,434.393616 421.311798,429.913177 425.946075,425.654724 
	C426.739990,424.925201 428.697601,425.462097 430.374756,425.657593 
z"/>
<path fill="#434F5E" opacity="1.000000" stroke="none" 
	d="
M352.002991,371.191895 
	C353.027740,368.673126 354.247681,366.428711 355.838287,363.502380 
	C358.242920,365.782379 359.737183,367.265686 361.303741,368.668213 
	C363.393738,370.539398 364.545715,372.212677 361.932068,374.794647 
	C359.445862,377.250641 357.508057,377.241760 355.310364,374.684906 
	C354.339203,373.555054 353.239532,372.535706 352.002991,371.191895 
z"/>
<path fill="#6CD6D3" opacity="1.000000" stroke="none" 
	d="
M386.000061,51.184364 
	C406.156830,51.184761 425.813660,51.156986 445.470337,51.200169 
	C452.742737,51.216145 457.018188,54.217186 458.248566,59.927128 
	C459.599457,66.196190 455.437469,72.176094 449.075470,72.953857 
	C447.267120,73.174919 445.415710,73.069885 443.584045,73.069977 
	C360.126068,73.074318 276.668060,73.073753 193.210068,73.073296 
	C191.877411,73.073288 190.543579,73.102966 189.212311,73.058243 
	C182.653397,72.837914 178.173706,68.753082 177.934540,62.799442 
	C177.689819,56.707851 181.587463,52.265102 188.112534,51.391624 
	C190.081223,51.128086 192.100540,51.191998 194.096664,51.191715 
	C257.897797,51.182751 321.698914,51.184345 386.000061,51.184364 
z"/>
<path fill="#FDCC04" opacity="1.000000" stroke="none" 
	d="
M101.082191,318.077637 
	C97.918762,321.468903 94.989052,324.592651 91.679382,328.121521 
	C83.305573,316.266296 81.540581,304.148102 86.687180,291.342194 
	C91.705948,278.854340 101.297920,271.683167 114.975166,268.579926 
	C114.975166,280.004181 115.047424,290.773132 114.878807,301.538300 
	C114.858932,302.807159 113.699516,304.216980 112.755287,305.284576 
	C109.009705,309.519470 105.139771,313.644409 101.082191,318.077637 
z"/>
<path fill="#F84967" opacity="1.000000" stroke="none" 
	d="
M148.857849,319.175903 
	C142.230682,314.127777 135.856903,309.336578 129.579315,304.422516 
	C128.489761,303.569611 127.071815,302.210724 127.050674,301.062653 
	C126.856201,290.498138 126.936073,279.928558 126.936073,268.730621 
	C140.116638,271.442139 149.209152,278.242096 154.524124,289.644135 
	C159.562637,300.453064 159.396194,311.328156 153.624756,322.471771 
	C151.826462,321.235474 150.485153,320.313324 148.857849,319.175903 
z"/>
<path fill="#AAB534" opacity="1.000000" stroke="none" 
	d="
M111.249863,341.049377 
	C107.649658,339.635773 104.454247,338.310181 100.176292,336.535492 
	C107.629005,328.476837 114.436409,321.115967 121.619598,313.348724 
	C129.981461,319.701294 137.999207,325.792419 146.460922,332.220856 
	C135.966339,341.671539 124.462914,343.932648 111.249863,341.049377 
z"/>
<path fill="#FDCC04" opacity="1.000000" stroke="none" 
	d="
M220.207214,196.000031 
	C220.207245,204.143509 220.207245,211.787003 220.207245,219.912842 
	C215.176682,219.912842 210.479446,219.912842 205.418472,219.912842 
	C205.418472,198.166077 205.418472,176.429718 205.418472,154.232208 
	C210.062927,154.232208 214.758377,154.232208 220.207169,154.232208 
	C220.207169,167.992981 220.207169,181.746506 220.207214,196.000031 
z"/>
<path fill="#FF8C83" opacity="1.000000" stroke="none" 
	d="
M155.062653,181.002686 
	C155.062668,194.127121 155.062668,206.752304 155.062668,219.869171 
	C150.036880,219.869171 145.360382,219.869171 140.329041,219.869171 
	C140.329041,201.739700 140.329041,183.682922 140.329041,165.130264 
	C144.997513,165.130264 149.674454,165.130264 155.062622,165.130264 
	C155.062622,170.301743 155.062622,175.402603 155.062653,181.002686 
z"/>
<path fill="#6CD7D4" opacity="1.000000" stroke="none" 
	d="
M77.170013,172.868408 
	C80.985107,172.857132 84.318077,172.856750 87.650841,172.883682 
	C88.143890,172.887665 88.635902,173.020645 89.527435,173.153351 
	C89.527435,188.655563 89.527435,204.192230 89.527435,220.064407 
	C84.814629,220.064407 80.223175,220.064407 75.237823,220.064407 
	C75.094795,218.816055 74.826210,217.547836 74.823143,216.278961 
	C74.791718,203.279846 74.743484,190.279953 74.885887,177.282318 
	C74.902008,175.811203 76.059563,174.352570 77.170013,172.868408 
z"/>
<path fill="#F74867" opacity="1.000000" stroke="none" 
	d="
M73.685867,56.644844 
	C76.918808,65.688744 72.352112,73.406013 64.089172,73.529030 
	C59.289391,73.600487 54.779476,70.488609 53.313400,66.093666 
	C51.710060,61.287239 53.331905,56.079823 57.336369,53.176788 
	C61.246281,50.342304 66.483002,50.247158 70.393715,53.107132 
	C71.574577,53.970722 72.467957,55.227406 73.685867,56.644844 
z"/>
<path fill="#FBB55B" opacity="1.000000" stroke="none" 
	d="
M124.285492,51.316368 
	C131.645233,54.571838 134.343307,59.831341 132.132584,65.977844 
	C130.032684,71.816216 124.020096,74.820976 118.106613,72.987259 
	C112.911392,71.376274 109.467384,65.854546 110.380814,60.600590 
	C111.490860,54.215740 116.387276,50.813919 124.285492,51.316368 
z"/>
<path fill="#69322E" opacity="1.000000" stroke="none" 
	d="
M300.834595,250.907013 
	C327.917480,252.112411 351.360687,274.717865 355.169617,301.275085 
	C359.431641,330.991577 339.701385,360.692230 309.216522,367.594025 
	C275.395233,375.251160 240.746338,350.295044 237.899200,315.664764 
	C235.299332,284.042328 254.405243,258.199280 285.483643,251.749374 
	C290.294922,250.750854 295.393250,251.135498 300.834595,250.907013 
M343.011200,319.258179 
	C343.066620,313.474640 343.871429,307.581177 343.042145,301.927399 
	C340.115997,281.977356 323.424835,265.572693 304.172760,263.004700 
	C282.445160,260.106506 262.842377,270.356934 253.895386,289.295013 
	C244.920197,308.292725 249.243958,330.631989 264.541504,344.604401 
	C291.090607,368.853668 334.439117,356.372803 343.011200,319.258179 
z"/>
<path fill="#E4E4E4" opacity="1.000000" stroke="none" 
	d="
M342.949524,319.677185 
	C334.439117,356.372803 291.090607,368.853668 264.541504,344.604401 
	C249.243958,330.631989 244.920197,308.292725 253.895386,289.295013 
	C262.842377,270.356934 282.445160,260.106506 304.172760,263.004700 
	C323.424835,265.572693 340.115997,281.977356 343.042145,301.927399 
	C343.871429,307.581177 343.066620,313.474640 342.949524,319.677185 
M269.389099,286.883118 
	C267.316193,290.259583 265.000092,293.514679 263.237549,297.046051 
	C261.412445,300.702789 261.512604,304.436554 265.895264,306.264893 
	C270.283203,308.095398 272.484436,304.786438 273.876953,301.559692 
	C280.209686,286.885315 291.751526,284.519928 303.014343,286.535004 
	C306.956604,287.240326 309.822693,285.936798 310.598969,282.055573 
	C311.358704,278.256805 308.515350,276.234497 305.386017,275.216370 
	C293.564240,271.370148 277.514984,276.449371 269.389099,286.883118 
M275.529633,333.153809 
	C276.546722,330.942291 278.812561,328.385071 278.316315,326.592499 
	C277.336456,323.053009 275.171570,319.666718 272.858154,316.718018 
	C270.297180,313.453735 264.869629,314.590820 263.500427,318.295074 
	C261.379242,324.033752 268.716339,333.839539 275.529633,333.153809 
z"/>
<path fill="#EFEFEF" opacity="1.000000" stroke="none" 
	d="
M269.593262,286.588623 
	C277.514984,276.449371 293.564240,271.370148 305.386017,275.216370 
	C308.515350,276.234497 311.358704,278.256805 310.598969,282.055573 
	C309.822693,285.936798 306.956604,287.240326 303.014343,286.535004 
	C291.751526,284.519928 280.209686,286.885315 273.876953,301.559692 
	C272.484436,304.786438 270.283203,308.095398 265.895264,306.264893 
	C261.512604,304.436554 261.412445,300.702789 263.237549,297.046051 
	C265.000092,293.514679 267.316193,290.259583 269.593262,286.588623 
z"/>
<path fill="#EFEFEF" opacity="1.000000" stroke="none" 
	d="
M275.187317,333.305237 
	C268.716339,333.839539 261.379242,324.033752 263.500427,318.295074 
	C264.869629,314.590820 270.297180,313.453735 272.858154,316.718018 
	C275.171570,319.666718 277.336456,323.053009 278.316315,326.592499 
	C278.812561,328.385071 276.546722,330.942291 275.187317,333.305237 
z"/>
</svg>